<mxfile host="app.diagrams.net" modified="2024-06-27T08:54:42.515Z" agent="Mozilla/5.0 (Macintosh; Intel Mac OS X 10_15_7) AppleWebKit/537.36 (KHTML, like Gecko) Chrome/125.0.0.0 Safari/537.36" etag="BEwzVAD7yDZBEI8x8bVU" version="24.6.3" type="github">
  <diagram name="第 1 页" id="n6j9qipEwyy2HWRYDnU-">
    <mxGraphModel dx="984" dy="626" grid="1" gridSize="10" guides="1" tooltips="1" connect="1" arrows="1" fold="1" page="1" pageScale="1" pageWidth="827" pageHeight="1169" math="0" shadow="0">
      <root>
        <mxCell id="0" />
        <mxCell id="1" parent="0" />
        <mxCell id="8MAJuyJdemvt7GlDl6pf-3" value="" style="rounded=0;whiteSpace=wrap;html=1;dashed=1;fillColor=none;" vertex="1" parent="1">
          <mxGeometry x="335" y="90" width="170" height="390" as="geometry" />
        </mxCell>
        <mxCell id="8MAJuyJdemvt7GlDl6pf-1" value="&lt;font style=&quot;font-size: 20px;&quot;&gt;server&lt;/font&gt;" style="rounded=1;whiteSpace=wrap;html=1;" vertex="1" parent="1">
          <mxGeometry x="640" y="118" width="120" height="60" as="geometry" />
        </mxCell>
        <mxCell id="8MAJuyJdemvt7GlDl6pf-2" value="&lt;font style=&quot;font-size: 20px;&quot;&gt;client&lt;/font&gt;" style="rounded=1;whiteSpace=wrap;html=1;" vertex="1" parent="1">
          <mxGeometry x="60" y="210" width="120" height="60" as="geometry" />
        </mxCell>
        <mxCell id="8MAJuyJdemvt7GlDl6pf-6" value="&lt;font style=&quot;font-size: 20px;&quot;&gt;broadcast queue&lt;/font&gt;" style="rounded=1;whiteSpace=wrap;html=1;" vertex="1" parent="1">
          <mxGeometry x="360" y="140" width="120" height="60" as="geometry" />
        </mxCell>
        <mxCell id="8MAJuyJdemvt7GlDl6pf-66" style="rounded=0;orthogonalLoop=1;jettySize=auto;html=1;exitX=1;exitY=0.5;exitDx=0;exitDy=0;entryX=0;entryY=0.75;entryDx=0;entryDy=0;" edge="1" parent="1" source="8MAJuyJdemvt7GlDl6pf-8" target="8MAJuyJdemvt7GlDl6pf-11">
          <mxGeometry relative="1" as="geometry" />
        </mxCell>
        <mxCell id="8MAJuyJdemvt7GlDl6pf-8" value="&lt;font style=&quot;font-size: 20px;&quot;&gt;queue&lt;/font&gt;" style="rounded=1;whiteSpace=wrap;html=1;" vertex="1" parent="1">
          <mxGeometry x="360" y="310" width="120" height="60" as="geometry" />
        </mxCell>
        <mxCell id="8MAJuyJdemvt7GlDl6pf-10" value="&lt;font style=&quot;font-size: 20px;&quot;&gt;server&lt;/font&gt;" style="rounded=1;whiteSpace=wrap;html=1;" vertex="1" parent="1">
          <mxGeometry x="650" y="240" width="120" height="60" as="geometry" />
        </mxCell>
        <mxCell id="8MAJuyJdemvt7GlDl6pf-52" style="rounded=0;orthogonalLoop=1;jettySize=auto;html=1;exitX=0;exitY=0.25;exitDx=0;exitDy=0;entryX=1;entryY=0.75;entryDx=0;entryDy=0;" edge="1" parent="1" source="8MAJuyJdemvt7GlDl6pf-11" target="8MAJuyJdemvt7GlDl6pf-20">
          <mxGeometry relative="1" as="geometry" />
        </mxCell>
        <mxCell id="8MAJuyJdemvt7GlDl6pf-75" style="edgeStyle=orthogonalEdgeStyle;rounded=0;orthogonalLoop=1;jettySize=auto;html=1;exitX=0.5;exitY=1;exitDx=0;exitDy=0;entryX=0.5;entryY=0;entryDx=0;entryDy=0;" edge="1" parent="1" source="8MAJuyJdemvt7GlDl6pf-11" target="8MAJuyJdemvt7GlDl6pf-68">
          <mxGeometry relative="1" as="geometry" />
        </mxCell>
        <mxCell id="8MAJuyJdemvt7GlDl6pf-78" value="msg" style="edgeLabel;html=1;align=center;verticalAlign=middle;resizable=0;points=[];" vertex="1" connectable="0" parent="8MAJuyJdemvt7GlDl6pf-75">
          <mxGeometry x="-0.06" y="2" relative="1" as="geometry">
            <mxPoint as="offset" />
          </mxGeometry>
        </mxCell>
        <mxCell id="8MAJuyJdemvt7GlDl6pf-76" style="rounded=0;orthogonalLoop=1;jettySize=auto;html=1;exitX=0.5;exitY=1;exitDx=0;exitDy=0;entryX=0.5;entryY=0;entryDx=0;entryDy=0;dashed=1;" edge="1" parent="1" source="8MAJuyJdemvt7GlDl6pf-11" target="8MAJuyJdemvt7GlDl6pf-72">
          <mxGeometry relative="1" as="geometry">
            <mxPoint x="640" y="530" as="targetPoint" />
          </mxGeometry>
        </mxCell>
        <mxCell id="8MAJuyJdemvt7GlDl6pf-77" style="rounded=0;orthogonalLoop=1;jettySize=auto;html=1;exitX=0.5;exitY=1;exitDx=0;exitDy=0;entryX=0.5;entryY=0;entryDx=0;entryDy=0;dashed=1;" edge="1" parent="1" source="8MAJuyJdemvt7GlDl6pf-11" target="8MAJuyJdemvt7GlDl6pf-73">
          <mxGeometry relative="1" as="geometry" />
        </mxCell>
        <mxCell id="8MAJuyJdemvt7GlDl6pf-11" value="&lt;font style=&quot;font-size: 20px;&quot;&gt;server&lt;/font&gt;" style="rounded=1;whiteSpace=wrap;html=1;" vertex="1" parent="1">
          <mxGeometry x="650" y="360" width="120" height="60" as="geometry" />
        </mxCell>
        <mxCell id="8MAJuyJdemvt7GlDl6pf-13" value="&lt;font style=&quot;font-size: 20px;&quot;&gt;client&lt;/font&gt;" style="rounded=1;whiteSpace=wrap;html=1;" vertex="1" parent="1">
          <mxGeometry x="70" y="220" width="120" height="60" as="geometry" />
        </mxCell>
        <mxCell id="8MAJuyJdemvt7GlDl6pf-14" value="&lt;font style=&quot;font-size: 20px;&quot;&gt;client&lt;/font&gt;" style="rounded=1;whiteSpace=wrap;html=1;" vertex="1" parent="1">
          <mxGeometry x="80" y="230" width="120" height="60" as="geometry" />
        </mxCell>
        <mxCell id="8MAJuyJdemvt7GlDl6pf-19" value="&lt;ul&gt;&lt;li&gt;&lt;font style=&quot;font-size: 14px;&quot;&gt;广播任务底层原理redis Pub/Sub机制&lt;/font&gt;&lt;/li&gt;&lt;li&gt;&lt;font style=&quot;font-size: 14px;&quot;&gt;广播任务不支持queue选项，会忽略指定的queue进入广播频道&lt;/font&gt;&lt;/li&gt;&lt;li&gt;&lt;span style=&quot;font-size: 14px;&quot;&gt;根据需求可扩展实现多个广播频道&lt;/span&gt;&lt;/li&gt;&lt;/ul&gt;" style="text;html=1;align=left;verticalAlign=middle;whiteSpace=wrap;rounded=0;" vertex="1" parent="1">
          <mxGeometry x="30" y="40" width="270" height="90" as="geometry" />
        </mxCell>
        <mxCell id="8MAJuyJdemvt7GlDl6pf-28" style="rounded=0;orthogonalLoop=1;jettySize=auto;html=1;exitX=1;exitY=0.25;exitDx=0;exitDy=0;entryX=0;entryY=0.5;entryDx=0;entryDy=0;" edge="1" parent="1" target="8MAJuyJdemvt7GlDl6pf-1">
          <mxGeometry relative="1" as="geometry">
            <mxPoint x="490" y="169" as="sourcePoint" />
            <mxPoint x="600" y="154" as="targetPoint" />
          </mxGeometry>
        </mxCell>
        <mxCell id="8MAJuyJdemvt7GlDl6pf-30" style="rounded=0;orthogonalLoop=1;jettySize=auto;html=1;exitX=0;exitY=0.25;exitDx=0;exitDy=0;entryX=0;entryY=0.5;entryDx=0;entryDy=0;" edge="1" parent="1" source="8MAJuyJdemvt7GlDl6pf-10">
          <mxGeometry relative="1" as="geometry">
            <mxPoint x="600" y="264" as="sourcePoint" />
            <mxPoint x="490" y="174" as="targetPoint" />
          </mxGeometry>
        </mxCell>
        <mxCell id="8MAJuyJdemvt7GlDl6pf-53" style="rounded=0;orthogonalLoop=1;jettySize=auto;html=1;exitX=1;exitY=1;exitDx=0;exitDy=0;entryX=0;entryY=0.5;entryDx=0;entryDy=0;endArrow=classic;endFill=1;" edge="1" parent="1" source="8MAJuyJdemvt7GlDl6pf-20" target="8MAJuyJdemvt7GlDl6pf-11">
          <mxGeometry relative="1" as="geometry" />
        </mxCell>
        <mxCell id="8MAJuyJdemvt7GlDl6pf-20" value="&lt;font style=&quot;font-size: 20px;&quot;&gt;broadcast queue&lt;/font&gt;" style="rounded=1;whiteSpace=wrap;html=1;" vertex="1" parent="1">
          <mxGeometry x="370" y="150" width="120" height="60" as="geometry" />
        </mxCell>
        <mxCell id="8MAJuyJdemvt7GlDl6pf-23" value="" style="endArrow=classic;html=1;rounded=0;entryX=0;entryY=0.25;entryDx=0;entryDy=0;" edge="1" parent="1" target="8MAJuyJdemvt7GlDl6pf-20">
          <mxGeometry width="50" height="50" relative="1" as="geometry">
            <mxPoint x="210" y="220" as="sourcePoint" />
            <mxPoint x="320" y="170" as="targetPoint" />
          </mxGeometry>
        </mxCell>
        <mxCell id="8MAJuyJdemvt7GlDl6pf-26" value="" style="endArrow=classic;html=1;rounded=0;entryX=0;entryY=0.5;entryDx=0;entryDy=0;" edge="1" parent="1" target="8MAJuyJdemvt7GlDl6pf-8">
          <mxGeometry width="50" height="50" relative="1" as="geometry">
            <mxPoint x="210" y="270" as="sourcePoint" />
            <mxPoint x="320" y="280" as="targetPoint" />
          </mxGeometry>
        </mxCell>
        <mxCell id="8MAJuyJdemvt7GlDl6pf-27" value="&lt;font style=&quot;font-size: 20px;&quot;&gt;broke&lt;/font&gt;&lt;div style=&quot;font-size: 20px;&quot;&gt;&lt;font style=&quot;font-size: 20px;&quot;&gt;(redis)&lt;/font&gt;&lt;/div&gt;" style="text;html=1;align=center;verticalAlign=middle;resizable=0;points=[];autosize=1;strokeColor=none;fillColor=none;" vertex="1" parent="1">
          <mxGeometry x="420" y="30" width="80" height="60" as="geometry" />
        </mxCell>
        <mxCell id="8MAJuyJdemvt7GlDl6pf-36" style="rounded=0;orthogonalLoop=1;jettySize=auto;html=1;exitX=0;exitY=0.25;exitDx=0;exitDy=0;entryX=0;entryY=0.5;entryDx=0;entryDy=0;movable=1;resizable=1;rotatable=1;deletable=1;editable=1;locked=0;connectable=1;" edge="1" parent="1" source="8MAJuyJdemvt7GlDl6pf-1">
          <mxGeometry relative="1" as="geometry">
            <mxPoint x="600" y="139.5" as="sourcePoint" />
            <mxPoint x="490" y="154.5" as="targetPoint" />
          </mxGeometry>
        </mxCell>
        <mxCell id="8MAJuyJdemvt7GlDl6pf-41" style="rounded=0;orthogonalLoop=1;jettySize=auto;html=1;exitX=1;exitY=0.5;exitDx=0;exitDy=0;entryX=0;entryY=0.5;entryDx=0;entryDy=0;" edge="1" parent="1" target="8MAJuyJdemvt7GlDl6pf-10">
          <mxGeometry relative="1" as="geometry">
            <mxPoint x="490" y="188" as="sourcePoint" />
            <mxPoint x="600" y="278" as="targetPoint" />
          </mxGeometry>
        </mxCell>
        <mxCell id="8MAJuyJdemvt7GlDl6pf-56" value="1.2 Pub" style="text;html=1;align=center;verticalAlign=middle;resizable=0;points=[];autosize=1;strokeColor=none;fillColor=none;" vertex="1" parent="1">
          <mxGeometry x="250" y="165" width="60" height="30" as="geometry" />
        </mxCell>
        <mxCell id="8MAJuyJdemvt7GlDl6pf-57" value="1.1 Sub" style="text;html=1;align=center;verticalAlign=middle;resizable=0;points=[];autosize=1;strokeColor=none;fillColor=none;" vertex="1" parent="1">
          <mxGeometry x="540" y="118" width="60" height="30" as="geometry" />
        </mxCell>
        <mxCell id="8MAJuyJdemvt7GlDl6pf-61" value="1.3 Msg" style="text;html=1;align=center;verticalAlign=middle;resizable=0;points=[];autosize=1;strokeColor=none;fillColor=none;" vertex="1" parent="1">
          <mxGeometry x="540" y="155" width="70" height="30" as="geometry" />
        </mxCell>
        <mxCell id="8MAJuyJdemvt7GlDl6pf-64" value="enqueue" style="text;html=1;align=center;verticalAlign=middle;resizable=0;points=[];autosize=1;strokeColor=none;fillColor=none;" vertex="1" parent="1">
          <mxGeometry x="215" y="250" width="70" height="30" as="geometry" />
        </mxCell>
        <mxCell id="8MAJuyJdemvt7GlDl6pf-67" value="dequeue" style="text;html=1;align=center;verticalAlign=middle;resizable=0;points=[];autosize=1;strokeColor=none;fillColor=none;" vertex="1" parent="1">
          <mxGeometry x="530" y="340" width="70" height="30" as="geometry" />
        </mxCell>
        <mxCell id="8MAJuyJdemvt7GlDl6pf-80" value="" style="edgeStyle=orthogonalEdgeStyle;rounded=0;orthogonalLoop=1;jettySize=auto;html=1;" edge="1" parent="1" source="8MAJuyJdemvt7GlDl6pf-68" target="8MAJuyJdemvt7GlDl6pf-79">
          <mxGeometry relative="1" as="geometry" />
        </mxCell>
        <mxCell id="8MAJuyJdemvt7GlDl6pf-68" value="worker" style="rounded=1;whiteSpace=wrap;html=1;" vertex="1" parent="1">
          <mxGeometry x="670" y="470" width="80" height="40" as="geometry" />
        </mxCell>
        <mxCell id="8MAJuyJdemvt7GlDl6pf-84" value="" style="edgeStyle=orthogonalEdgeStyle;rounded=0;orthogonalLoop=1;jettySize=auto;html=1;" edge="1" parent="1" source="8MAJuyJdemvt7GlDl6pf-72" target="8MAJuyJdemvt7GlDl6pf-83">
          <mxGeometry relative="1" as="geometry" />
        </mxCell>
        <mxCell id="8MAJuyJdemvt7GlDl6pf-72" value="worker" style="rounded=1;whiteSpace=wrap;html=1;" vertex="1" parent="1">
          <mxGeometry x="570" y="470" width="80" height="40" as="geometry" />
        </mxCell>
        <mxCell id="8MAJuyJdemvt7GlDl6pf-86" value="" style="edgeStyle=orthogonalEdgeStyle;rounded=0;orthogonalLoop=1;jettySize=auto;html=1;" edge="1" parent="1" source="8MAJuyJdemvt7GlDl6pf-73" target="8MAJuyJdemvt7GlDl6pf-85">
          <mxGeometry relative="1" as="geometry" />
        </mxCell>
        <mxCell id="8MAJuyJdemvt7GlDl6pf-73" value="worker" style="rounded=1;whiteSpace=wrap;html=1;" vertex="1" parent="1">
          <mxGeometry x="770" y="470" width="80" height="40" as="geometry" />
        </mxCell>
        <mxCell id="8MAJuyJdemvt7GlDl6pf-79" value="handle job" style="rounded=1;whiteSpace=wrap;html=1;" vertex="1" parent="1">
          <mxGeometry x="670" y="550" width="80" height="40" as="geometry" />
        </mxCell>
        <mxCell id="8MAJuyJdemvt7GlDl6pf-83" value="handle job" style="rounded=1;whiteSpace=wrap;html=1;" vertex="1" parent="1">
          <mxGeometry x="570" y="550" width="80" height="40" as="geometry" />
        </mxCell>
        <mxCell id="8MAJuyJdemvt7GlDl6pf-85" value="handle job" style="rounded=1;whiteSpace=wrap;html=1;" vertex="1" parent="1">
          <mxGeometry x="770" y="550" width="80" height="40" as="geometry" />
        </mxCell>
      </root>
    </mxGraphModel>
  </diagram>
</mxfile>
